<?xml version="1.0" encoding="utf-8" standalone="no"?>
<!DOCTYPE svg PUBLIC "-//W3C//DTD SVG 1.1//EN"
  "http://www.w3.org/Graphics/SVG/1.1/DTD/svg11.dtd">
<svg xmlns:xlink="http://www.w3.org/1999/xlink" width="576pt" height="432pt" viewBox="0 0 576 432" xmlns="http://www.w3.org/2000/svg" version="1.1">
 <metadata>
  <rdf:RDF xmlns:dc="http://purl.org/dc/elements/1.1/" xmlns:cc="http://creativecommons.org/ns#" xmlns:rdf="http://www.w3.org/1999/02/22-rdf-syntax-ns#">
   <cc:Work>
    <dc:type rdf:resource="http://purl.org/dc/dcmitype/StillImage"/>
    <dc:date>2024-10-11T14:06:24.761941</dc:date>
    <dc:format>image/svg+xml</dc:format>
    <dc:creator>
     <cc:Agent>
      <dc:title>Matplotlib v3.7.1, https://matplotlib.org/</dc:title>
     </cc:Agent>
    </dc:creator>
   </cc:Work>
  </rdf:RDF>
 </metadata>
 <defs>
  <style type="text/css">*{stroke-linejoin: round; stroke-linecap: butt}</style>
 </defs>
 <g id="figure_1">
  <g id="patch_1">
   <path d="M 0 432 
L 576 432 
L 576 0 
L 0 0 
L 0 432 
z
" style="fill: none"/>
  </g>
  <g id="axes_1">
   <g id="patch_2">
    <path d="M 68.137678 378.317271 
L 520.745374 378.317271 
L 520.745374 10.8 
L 68.137678 10.8 
L 68.137678 378.317271 
z
" style="fill: none"/>
   </g>
   <g id="PathCollection_1">
    <defs>
     <path id="m779c664639" d="M 0 -3.535534 
L -0.793777 -1.09254 
L -3.362493 -1.09254 
L -1.284358 0.417313 
L -2.078135 2.860307 
L -0 1.350454 
L 2.078135 2.860307 
L 1.284358 0.417313 
L 3.362493 -1.09254 
L 0.793777 -1.09254 
z
" style="stroke: #377eb8; stroke-opacity: 0.75"/>
    </defs>
    <g clip-path="url(#p7ea8a306ed)">
     <use xlink:href="#m779c664639" x="497.410393" y="264.813141" style="fill: #377eb8; fill-opacity: 0.75; stroke: #377eb8; stroke-opacity: 0.75"/>
     <use xlink:href="#m779c664639" x="497.773646" y="257.097572" style="fill: #377eb8; fill-opacity: 0.75; stroke: #377eb8; stroke-opacity: 0.75"/>
     <use xlink:href="#m779c664639" x="491.367991" y="262.637054" style="fill: #377eb8; fill-opacity: 0.75; stroke: #377eb8; stroke-opacity: 0.75"/>
     <use xlink:href="#m779c664639" x="491.873696" y="261.315803" style="fill: #377eb8; fill-opacity: 0.75; stroke: #377eb8; stroke-opacity: 0.75"/>
     <use xlink:href="#m779c664639" x="500.172297" y="258.152196" style="fill: #377eb8; fill-opacity: 0.75; stroke: #377eb8; stroke-opacity: 0.75"/>
    </g>
   </g>
   <g id="PathCollection_2">
    <defs>
     <path id="md9ea640754" d="M 0 -3.535534 
L -0.793777 -1.09254 
L -3.362493 -1.09254 
L -1.284358 0.417313 
L -2.078135 2.860307 
L -0 1.350454 
L 2.078135 2.860307 
L 1.284358 0.417313 
L 3.362493 -1.09254 
L 0.793777 -1.09254 
z
" style="stroke: #ff7f00; stroke-opacity: 0.75"/>
    </defs>
    <g clip-path="url(#p7ea8a306ed)">
     <use xlink:href="#md9ea640754" x="337.757252" y="217.101949" style="fill: #ff7f00; fill-opacity: 0.75; stroke: #ff7f00; stroke-opacity: 0.75"/>
    </g>
   </g>
   <g id="PathCollection_3">
    <defs>
     <path id="m0cea5e1e48" d="M 0 -3.535534 
L -0.793777 -1.09254 
L -3.362493 -1.09254 
L -1.284358 0.417313 
L -2.078135 2.860307 
L -0 1.350454 
L 2.078135 2.860307 
L 1.284358 0.417313 
L 3.362493 -1.09254 
L 0.793777 -1.09254 
z
" style="stroke: #4daf4a; stroke-opacity: 0.75"/>
    </defs>
    <g clip-path="url(#p7ea8a306ed)">
     <use xlink:href="#m0cea5e1e48" x="488.517436" y="187.752385" style="fill: #4daf4a; fill-opacity: 0.75; stroke: #4daf4a; stroke-opacity: 0.75"/>
    </g>
   </g>
   <g id="PathCollection_4">
    <defs>
     <path id="m77029a6b30" d="M 0 -3.535534 
L -0.793777 -1.09254 
L -3.362493 -1.09254 
L -1.284358 0.417313 
L -2.078135 2.860307 
L -0 1.350454 
L 2.078135 2.860307 
L 1.284358 0.417313 
L 3.362493 -1.09254 
L 0.793777 -1.09254 
z
" style="stroke: #f781bf; stroke-opacity: 0.75"/>
    </defs>
    <g clip-path="url(#p7ea8a306ed)">
     <use xlink:href="#m77029a6b30" x="496.365325" y="87.822037" style="fill: #f781bf; fill-opacity: 0.75; stroke: #f781bf; stroke-opacity: 0.75"/>
    </g>
   </g>
   <g id="PathCollection_5">
    <defs>
     <path id="m875c28889c" d="M 0 -3.535534 
L -0.793777 -1.09254 
L -3.362493 -1.09254 
L -1.284358 0.417313 
L -2.078135 2.860307 
L -0 1.350454 
L 2.078135 2.860307 
L 1.284358 0.417313 
L 3.362493 -1.09254 
L 0.793777 -1.09254 
z
" style="stroke: #a65628; stroke-opacity: 0.75"/>
    </defs>
    <g clip-path="url(#p7ea8a306ed)">
     <use xlink:href="#m875c28889c" x="88.710755" y="163.651061" style="fill: #a65628; fill-opacity: 0.75; stroke: #a65628; stroke-opacity: 0.75"/>
    </g>
   </g>
   <g id="PathCollection_6">
    <defs>
     <path id="mc657d5b523" d="M 0 -3.535534 
L -0.793777 -1.09254 
L -3.362493 -1.09254 
L -1.284358 0.417313 
L -2.078135 2.860307 
L -0 1.350454 
L 2.078135 2.860307 
L 1.284358 0.417313 
L 3.362493 -1.09254 
L 0.793777 -1.09254 
z
" style="stroke: #984ea3; stroke-opacity: 0.75"/>
    </defs>
    <g clip-path="url(#p7ea8a306ed)">
     <use xlink:href="#mc657d5b523" x="247.461007" y="65.620328" style="fill: #984ea3; fill-opacity: 0.75; stroke: #984ea3; stroke-opacity: 0.75"/>
    </g>
   </g>
   <g id="PathCollection_7">
    <defs>
     <path id="mb929e521c6" d="M 0 -3.535534 
L -0.793777 -1.09254 
L -3.362493 -1.09254 
L -1.284358 0.417313 
L -2.078135 2.860307 
L -0 1.350454 
L 2.078135 2.860307 
L 1.284358 0.417313 
L 3.362493 -1.09254 
L 0.793777 -1.09254 
z
" style="stroke: #7f7f7f; stroke-opacity: 0.75"/>
    </defs>
    <g clip-path="url(#p7ea8a306ed)">
     <use xlink:href="#mb929e521c6" x="377.57305" y="26.412625" style="fill: #7f7f7f; fill-opacity: 0.75; stroke: #7f7f7f; stroke-opacity: 0.75"/>
    </g>
   </g>
   <g id="PathCollection_8">
    <defs>
     <path id="mf3585840f8" d="M 0 -3.535534 
L -0.793777 -1.09254 
L -3.362493 -1.09254 
L -1.284358 0.417313 
L -2.078135 2.860307 
L -0 1.350454 
L 2.078135 2.860307 
L 1.284358 0.417313 
L 3.362493 -1.09254 
L 0.793777 -1.09254 
z
" style="stroke: #e41a1c; stroke-opacity: 0.75"/>
    </defs>
    <g clip-path="url(#p7ea8a306ed)">
     <use xlink:href="#mf3585840f8" x="341.846717" y="116.544846" style="fill: #e41a1c; fill-opacity: 0.75; stroke: #e41a1c; stroke-opacity: 0.75"/>
    </g>
   </g>
   <g id="PathCollection_9">
    <defs>
     <path id="mdc169450ee" d="M 0 -3.535534 
L -0.793777 -1.09254 
L -3.362493 -1.09254 
L -1.284358 0.417313 
L -2.078135 2.860307 
L -0 1.350454 
L 2.078135 2.860307 
L 1.284358 0.417313 
L 3.362493 -1.09254 
L 0.793777 -1.09254 
z
" style="stroke: #bcbd22; stroke-opacity: 0.75"/>
    </defs>
    <g clip-path="url(#p7ea8a306ed)">
     <use xlink:href="#mdc169450ee" x="334.973264" y="338.665123" style="fill: #bcbd22; fill-opacity: 0.75; stroke: #bcbd22; stroke-opacity: 0.75"/>
    </g>
   </g>
   <g id="PathCollection_10">
    <defs>
     <path id="mac76c5dfb7" d="M 0 -3.535534 
L -0.793777 -1.09254 
L -3.362493 -1.09254 
L -1.284358 0.417313 
L -2.078135 2.860307 
L -0 1.350454 
L 2.078135 2.860307 
L 1.284358 0.417313 
L 3.362493 -1.09254 
L 0.793777 -1.09254 
z
" style="stroke: #17becf; stroke-opacity: 0.75"/>
    </defs>
    <g clip-path="url(#p7ea8a306ed)">
     <use xlink:href="#mac76c5dfb7" x="203.386288" y="265.18768" style="fill: #17becf; fill-opacity: 0.75; stroke: #17becf; stroke-opacity: 0.75"/>
    </g>
   </g>
   <g id="matplotlib.axis_1">
    <g id="xtick_1">
     <g id="line2d_1">
      <defs>
       <path id="m90814fd15e" d="M 0 0 
L 0 3.5 
" style="stroke: #000000; stroke-width: 0.8"/>
      </defs>
      <g>
       <use xlink:href="#m90814fd15e" x="111.301863" y="378.317271" style="stroke: #000000; stroke-width: 0.8"/>
      </g>
     </g>
     <g id="text_1">
      <!-- $\mathdefault{−40}$ -->
      <g transform="translate(96.103706 397.770572) scale(0.18 -0.18)">
       <defs>
        <path id="CMSY10-0" d="M 4218 1472 
C 4326 1472 4442 1472 4442 1600 
C 4442 1728 4326 1728 4218 1728 
L 755 1728 
C 646 1728 531 1728 531 1600 
C 531 1472 646 1472 755 1472 
L 4218 1472 
z
" transform="scale(0.015625)"/>
        <path id="CMR17-34" d="M 2150 4122 
C 2150 4256 2144 4256 2029 4256 
L 128 1254 
L 128 1088 
L 1779 1088 
L 1779 457 
C 1779 224 1766 160 1318 160 
L 1197 160 
L 1197 0 
C 1402 0 1747 0 1965 0 
C 2182 0 2528 0 2733 0 
L 2733 160 
L 2611 160 
C 2163 160 2150 224 2150 457 
L 2150 1088 
L 2803 1088 
L 2803 1254 
L 2150 1254 
L 2150 4122 
z
M 1798 3703 
L 1798 1254 
L 256 1254 
L 1798 3703 
z
" transform="scale(0.015625)"/>
        <path id="CMR17-30" d="M 2688 2025 
C 2688 2416 2682 3080 2413 3591 
C 2176 4039 1798 4198 1466 4198 
C 1158 4198 768 4058 525 3597 
C 269 3118 243 2524 243 2025 
C 243 1661 250 1106 448 619 
C 723 -39 1216 -128 1466 -128 
C 1760 -128 2208 -7 2470 600 
C 2662 1042 2688 1559 2688 2025 
z
M 1466 -26 
C 1056 -26 813 325 723 812 
C 653 1188 653 1738 653 2096 
C 653 2588 653 2997 736 3387 
C 858 3929 1216 4096 1466 4096 
C 1728 4096 2067 3923 2189 3400 
C 2272 3036 2278 2607 2278 2096 
C 2278 1680 2278 1169 2202 792 
C 2067 95 1690 -26 1466 -26 
z
" transform="scale(0.015625)"/>
       </defs>
       <use xlink:href="#CMSY10-0" transform="scale(0.996264)"/>
       <use xlink:href="#CMR17-34" transform="translate(77.487468 0) scale(0.996264)"/>
       <use xlink:href="#CMR17-30" transform="translate(123.177945 0) scale(0.996264)"/>
      </g>
     </g>
    </g>
    <g id="xtick_2">
     <g id="line2d_2">
      <g>
       <use xlink:href="#m90814fd15e" x="169.750639" y="378.317271" style="stroke: #000000; stroke-width: 0.8"/>
      </g>
     </g>
     <g id="text_2">
      <!-- $\mathdefault{−30}$ -->
      <g transform="translate(154.552482 397.770572) scale(0.18 -0.18)">
       <defs>
        <path id="CMR17-33" d="M 1414 2157 
C 1984 2157 2234 1662 2234 1090 
C 2234 320 1824 25 1453 25 
C 1114 25 563 194 390 693 
C 422 680 454 680 486 680 
C 640 680 755 782 755 948 
C 755 1133 614 1216 486 1216 
C 378 1216 211 1165 211 926 
C 211 335 787 -128 1466 -128 
C 2176 -128 2720 430 2720 1085 
C 2720 1707 2208 2157 1600 2227 
C 2086 2328 2554 2756 2554 3329 
C 2554 3820 2048 4179 1472 4179 
C 890 4179 378 3829 378 3329 
C 378 3110 544 3072 627 3072 
C 762 3072 877 3155 877 3321 
C 877 3486 762 3569 627 3569 
C 602 3569 570 3569 544 3557 
C 730 3959 1235 4032 1459 4032 
C 1683 4032 2106 3925 2106 3320 
C 2106 3143 2080 2828 1862 2550 
C 1670 2304 1453 2304 1242 2284 
C 1210 2284 1062 2269 1037 2269 
C 992 2263 966 2257 966 2208 
C 966 2163 973 2157 1101 2157 
L 1414 2157 
z
" transform="scale(0.015625)"/>
       </defs>
       <use xlink:href="#CMSY10-0" transform="scale(0.996264)"/>
       <use xlink:href="#CMR17-33" transform="translate(77.487468 0) scale(0.996264)"/>
       <use xlink:href="#CMR17-30" transform="translate(123.177945 0) scale(0.996264)"/>
      </g>
     </g>
    </g>
    <g id="xtick_3">
     <g id="line2d_3">
      <g>
       <use xlink:href="#m90814fd15e" x="228.199415" y="378.317271" style="stroke: #000000; stroke-width: 0.8"/>
      </g>
     </g>
     <g id="text_3">
      <!-- $\mathdefault{−20}$ -->
      <g transform="translate(213.001258 397.770572) scale(0.18 -0.18)">
       <defs>
        <path id="CMR17-32" d="M 2669 989 
L 2554 989 
C 2490 536 2438 459 2413 420 
C 2381 369 1920 369 1830 369 
L 602 369 
C 832 619 1280 1072 1824 1597 
C 2214 1967 2669 2402 2669 3035 
C 2669 3790 2067 4224 1395 4224 
C 691 4224 262 3604 262 3030 
C 262 2780 448 2748 525 2748 
C 589 2748 781 2787 781 3010 
C 781 3207 614 3264 525 3264 
C 486 3264 448 3258 422 3245 
C 544 3790 915 4058 1306 4058 
C 1862 4058 2227 3617 2227 3035 
C 2227 2479 1901 2000 1536 1584 
L 262 146 
L 262 0 
L 2515 0 
L 2669 989 
z
" transform="scale(0.015625)"/>
       </defs>
       <use xlink:href="#CMSY10-0" transform="scale(0.996264)"/>
       <use xlink:href="#CMR17-32" transform="translate(77.487468 0) scale(0.996264)"/>
       <use xlink:href="#CMR17-30" transform="translate(123.177945 0) scale(0.996264)"/>
      </g>
     </g>
    </g>
    <g id="xtick_4">
     <g id="line2d_4">
      <g>
       <use xlink:href="#m90814fd15e" x="286.648191" y="378.317271" style="stroke: #000000; stroke-width: 0.8"/>
      </g>
     </g>
     <g id="text_4">
      <!-- $\mathdefault{−10}$ -->
      <g transform="translate(271.450034 397.770572) scale(0.18 -0.18)">
       <defs>
        <path id="CMR17-31" d="M 1702 4058 
C 1702 4192 1696 4192 1606 4192 
C 1357 3916 979 3827 621 3827 
C 602 3827 570 3827 563 3808 
C 557 3795 557 3782 557 3648 
C 755 3648 1088 3686 1344 3839 
L 1344 461 
C 1344 236 1331 160 781 160 
L 589 160 
L 589 0 
C 896 0 1216 0 1523 0 
C 1830 0 2150 0 2458 0 
L 2458 160 
L 2266 160 
C 1715 160 1702 230 1702 458 
L 1702 4058 
z
" transform="scale(0.015625)"/>
       </defs>
       <use xlink:href="#CMSY10-0" transform="scale(0.996264)"/>
       <use xlink:href="#CMR17-31" transform="translate(77.487468 0) scale(0.996264)"/>
       <use xlink:href="#CMR17-30" transform="translate(123.177945 0) scale(0.996264)"/>
      </g>
     </g>
    </g>
    <g id="xtick_5">
     <g id="line2d_5">
      <g>
       <use xlink:href="#m90814fd15e" x="345.096966" y="378.317271" style="stroke: #000000; stroke-width: 0.8"/>
      </g>
     </g>
     <g id="text_5">
      <!-- $\mathdefault{0}$ -->
      <g transform="translate(340.984823 397.770572) scale(0.18 -0.18)">
       <use xlink:href="#CMR17-30" transform="scale(0.996264)"/>
      </g>
     </g>
    </g>
    <g id="xtick_6">
     <g id="line2d_6">
      <g>
       <use xlink:href="#m90814fd15e" x="403.545742" y="378.317271" style="stroke: #000000; stroke-width: 0.8"/>
      </g>
     </g>
     <g id="text_6">
      <!-- $\mathdefault{10}$ -->
      <g transform="translate(395.321456 397.770572) scale(0.18 -0.18)">
       <use xlink:href="#CMR17-31" transform="scale(0.996264)"/>
       <use xlink:href="#CMR17-30" transform="translate(45.690477 0) scale(0.996264)"/>
      </g>
     </g>
    </g>
    <g id="xtick_7">
     <g id="line2d_7">
      <g>
       <use xlink:href="#m90814fd15e" x="461.994518" y="378.317271" style="stroke: #000000; stroke-width: 0.8"/>
      </g>
     </g>
     <g id="text_7">
      <!-- $\mathdefault{20}$ -->
      <g transform="translate(453.770232 397.770572) scale(0.18 -0.18)">
       <use xlink:href="#CMR17-32" transform="scale(0.996264)"/>
       <use xlink:href="#CMR17-30" transform="translate(45.690477 0) scale(0.996264)"/>
      </g>
     </g>
    </g>
    <g id="text_8">
     <!-- Component 1 -->
     <g transform="translate(245.928914 417.711936) scale(0.18 -0.18)">
      <defs>
       <path id="CMR17-43" d="M 3974 4289 
C 3974 4403 3968 4410 3930 4410 
C 3904 4410 3898 4403 3853 4327 
L 3571 3792 
C 3258 4187 2874 4416 2381 4416 
C 1286 4416 294 3456 294 2148 
C 294 826 1286 -128 2387 -128 
C 3366 -128 3974 730 3974 1461 
C 3974 1524 3974 1550 3917 1550 
C 3866 1550 3866 1531 3859 1474 
C 3808 585 3168 38 2477 38 
C 1824 38 781 495 781 2147 
C 781 3805 1843 4250 2464 4250 
C 3187 4250 3712 3628 3834 2745 
C 3846 2668 3846 2655 3904 2655 
C 3974 2655 3974 2668 3974 2783 
L 3974 4289 
z
" transform="scale(0.015625)"/>
       <path id="CMR17-6f" d="M 2758 1356 
C 2758 2176 2163 2816 1466 2816 
C 768 2816 173 2176 173 1356 
C 173 551 768 -64 1466 -64 
C 2163 -64 2758 551 2758 1356 
z
M 1466 51 
C 1165 51 909 230 762 480 
C 602 767 582 1126 582 1408 
C 582 1677 595 2010 762 2298 
C 890 2509 1139 2714 1466 2714 
C 1754 2714 1997 2554 2150 2330 
C 2349 2029 2349 1607 2349 1408 
C 2349 1158 2336 775 2163 467 
C 1984 173 1709 51 1466 51 
z
" transform="scale(0.015625)"/>
       <path id="CMR17-6d" d="M 4326 1933 
C 4326 2252 4269 2790 3507 2790 
C 3072 2790 2771 2496 2656 2151 
L 2650 2151 
C 2573 2676 2195 2790 1837 2790 
C 1331 2790 1069 2400 973 2144 
L 966 2144 
L 966 2790 
L 211 2720 
L 211 2554 
C 589 2554 646 2515 646 2208 
L 646 428 
C 646 184 621 153 211 153 
L 211 -13 
C 365 0 646 0 813 0 
C 979 0 1267 0 1421 -13 
L 1421 153 
C 1011 153 986 178 986 428 
L 986 1658 
C 986 2247 1344 2688 1792 2688 
C 2266 2688 2317 2266 2317 1958 
L 2317 428 
C 2317 184 2291 153 1882 153 
L 1882 -13 
C 2035 0 2317 0 2483 0 
C 2650 0 2938 0 3091 -13 
L 3091 153 
C 2682 153 2656 178 2656 428 
L 2656 1658 
C 2656 2247 3014 2688 3462 2688 
C 3936 2688 3987 2266 3987 1958 
L 3987 428 
C 3987 184 3962 153 3552 153 
L 3552 -13 
C 3706 0 3987 0 4154 0 
C 4320 0 4608 0 4762 -13 
L 4762 153 
C 4352 153 4326 178 4326 428 
L 4326 1933 
z
" transform="scale(0.015625)"/>
       <path id="CMR17-70" d="M 1408 -1063 
C 998 -1063 973 -1037 973 -789 
L 973 402 
C 1158 134 1427 -38 1766 -38 
C 2406 -38 3053 523 3053 1388 
C 3053 2191 2496 2802 1837 2802 
C 1453 2802 1139 2592 960 2338 
L 960 2802 
L 198 2732 
L 198 2567 
C 576 2567 634 2528 634 2223 
L 634 -789 
C 634 -1031 608 -1063 198 -1063 
L 198 -1228 
C 352 -1216 634 -1216 800 -1216 
C 966 -1216 1254 -1216 1408 -1228 
L 1408 -1063 
z
M 973 2012 
C 973 2102 973 2235 1222 2471 
C 1254 2497 1472 2688 1792 2688 
C 2259 2688 2643 2108 2643 1382 
C 2643 656 2234 64 1728 64 
C 1498 64 1248 172 1056 472 
C 973 612 973 650 973 752 
L 973 2012 
z
" transform="scale(0.015625)"/>
       <path id="CMR17-6e" d="M 2656 1933 
C 2656 2259 2592 2790 1837 2790 
C 1331 2790 1069 2400 973 2144 
L 966 2144 
L 966 2790 
L 211 2720 
L 211 2554 
C 589 2554 646 2515 646 2208 
L 646 428 
C 646 184 621 153 211 153 
L 211 -13 
C 365 0 646 0 813 0 
C 979 0 1267 0 1421 -13 
L 1421 153 
C 1011 153 986 178 986 428 
L 986 1658 
C 986 2247 1344 2688 1792 2688 
C 2266 2688 2317 2266 2317 1958 
L 2317 428 
C 2317 184 2291 153 1882 153 
L 1882 -13 
C 2035 0 2317 0 2483 0 
C 2650 0 2938 0 3091 -13 
L 3091 153 
C 2682 153 2656 178 2656 428 
L 2656 1933 
z
" transform="scale(0.015625)"/>
       <path id="CMR17-65" d="M 2438 1472 
C 2464 1498 2464 1511 2464 1576 
C 2464 2238 2118 2816 1389 2816 
C 710 2816 173 2169 173 1383 
C 173 551 781 -64 1459 -64 
C 2176 -64 2458 607 2458 740 
C 2458 784 2419 784 2406 784 
C 2362 784 2355 771 2330 696 
C 2189 265 1837 51 1504 51 
C 1229 51 954 203 781 480 
C 582 803 582 1176 582 1472 
L 2438 1472 
z
M 589 1568 
C 634 2505 1126 2714 1382 2714 
C 1818 2714 2112 2297 2118 1568 
L 589 1568 
z
" transform="scale(0.015625)"/>
       <path id="CMR17-74" d="M 966 2560 
L 1862 2560 
L 1862 2725 
L 966 2725 
L 966 3904 
L 851 3904 
C 838 3245 614 2668 70 2668 
L 70 2560 
L 627 2560 
L 627 771 
C 627 650 627 -64 1370 -64 
C 1747 -64 1965 306 1965 777 
L 1965 1140 
L 1850 1140 
L 1850 783 
C 1850 344 1677 51 1408 51 
C 1222 51 966 178 966 758 
L 966 2560 
z
" transform="scale(0.015625)"/>
      </defs>
      <use xlink:href="#CMR17-43" transform="scale(0.996264)"/>
      <use xlink:href="#CMR17-6f" transform="translate(66.509881 0) scale(0.996264)"/>
      <use xlink:href="#CMR17-6d" transform="translate(112.200358 0) scale(0.996264)"/>
      <use xlink:href="#CMR17-70" transform="translate(189.119948 0) scale(0.996264)"/>
      <use xlink:href="#CMR17-6f" transform="translate(242.617756 0) scale(0.996264)"/>
      <use xlink:href="#CMR17-6e" transform="translate(288.308233 0) scale(0.996264)"/>
      <use xlink:href="#CMR17-65" transform="translate(339.203603 0) scale(0.996264)"/>
      <use xlink:href="#CMR17-6e" transform="translate(379.689263 0) scale(0.996264)"/>
      <use xlink:href="#CMR17-74" transform="translate(427.982179 0) scale(0.996264)"/>
      <use xlink:href="#CMR17-31" transform="translate(493.338913 0) scale(0.996264)"/>
     </g>
    </g>
   </g>
   <g id="matplotlib.axis_2">
    <g id="ytick_1">
     <g id="line2d_8">
      <defs>
       <path id="m1909a9e0ce" d="M 0 0 
L -3.5 0 
" style="stroke: #000000; stroke-width: 0.8"/>
      </defs>
      <g>
       <use xlink:href="#m1909a9e0ce" x="68.137678" y="378.317271" style="stroke: #000000; stroke-width: 0.8"/>
      </g>
     </g>
     <g id="text_9">
      <!-- $\mathdefault{−50}$ -->
      <g transform="translate(30.741364 384.543921) scale(0.18 -0.18)">
       <defs>
        <path id="CMR17-35" d="M 730 3692 
C 794 3666 1056 3584 1325 3584 
C 1920 3584 2246 3911 2432 4100 
C 2432 4157 2432 4192 2394 4192 
C 2387 4192 2374 4192 2323 4163 
C 2099 4058 1837 3973 1517 3973 
C 1325 3973 1037 3999 723 4139 
C 653 4171 640 4171 634 4171 
C 602 4171 595 4164 595 4037 
L 595 2203 
C 595 2089 595 2057 659 2057 
C 691 2057 704 2070 736 2114 
C 941 2401 1222 2522 1542 2522 
C 1766 2522 2246 2382 2246 1289 
C 2246 1085 2246 715 2054 421 
C 1894 159 1645 25 1370 25 
C 947 25 518 320 403 814 
C 429 807 480 795 506 795 
C 589 795 749 840 749 1038 
C 749 1210 627 1280 506 1280 
C 358 1280 262 1190 262 1011 
C 262 454 704 -128 1382 -128 
C 2042 -128 2669 440 2669 1264 
C 2669 2030 2170 2624 1549 2624 
C 1222 2624 947 2503 730 2274 
L 730 3692 
z
" transform="scale(0.015625)"/>
       </defs>
       <use xlink:href="#CMSY10-0" transform="scale(0.996264)"/>
       <use xlink:href="#CMR17-35" transform="translate(77.487468 0) scale(0.996264)"/>
       <use xlink:href="#CMR17-30" transform="translate(123.177945 0) scale(0.996264)"/>
      </g>
     </g>
    </g>
    <g id="ytick_2">
     <g id="line2d_9">
      <g>
       <use xlink:href="#m1909a9e0ce" x="68.137678" y="315.328183" style="stroke: #000000; stroke-width: 0.8"/>
      </g>
     </g>
     <g id="text_10">
      <!-- $\mathdefault{−35}$ -->
      <g transform="translate(30.741364 321.554833) scale(0.18 -0.18)">
       <use xlink:href="#CMSY10-0" transform="scale(0.996264)"/>
       <use xlink:href="#CMR17-33" transform="translate(77.487468 0) scale(0.996264)"/>
       <use xlink:href="#CMR17-35" transform="translate(123.177945 0) scale(0.996264)"/>
      </g>
     </g>
    </g>
    <g id="ytick_3">
     <g id="line2d_10">
      <g>
       <use xlink:href="#m1909a9e0ce" x="68.137678" y="252.339094" style="stroke: #000000; stroke-width: 0.8"/>
      </g>
     </g>
     <g id="text_11">
      <!-- $\mathdefault{−20}$ -->
      <g transform="translate(30.741364 258.565744) scale(0.18 -0.18)">
       <use xlink:href="#CMSY10-0" transform="scale(0.996264)"/>
       <use xlink:href="#CMR17-32" transform="translate(77.487468 0) scale(0.996264)"/>
       <use xlink:href="#CMR17-30" transform="translate(123.177945 0) scale(0.996264)"/>
      </g>
     </g>
    </g>
    <g id="ytick_4">
     <g id="line2d_11">
      <g>
       <use xlink:href="#m1909a9e0ce" x="68.137678" y="189.350005" style="stroke: #000000; stroke-width: 0.8"/>
      </g>
     </g>
     <g id="text_12">
      <!-- $\mathdefault{−5}$ -->
      <g transform="translate(38.96565 195.576655) scale(0.18 -0.18)">
       <use xlink:href="#CMSY10-0" transform="scale(0.996264)"/>
       <use xlink:href="#CMR17-35" transform="translate(77.487468 0) scale(0.996264)"/>
      </g>
     </g>
    </g>
    <g id="ytick_5">
     <g id="line2d_12">
      <g>
       <use xlink:href="#m1909a9e0ce" x="68.137678" y="126.360916" style="stroke: #000000; stroke-width: 0.8"/>
      </g>
     </g>
     <g id="text_13">
      <!-- $\mathdefault{10}$ -->
      <g transform="translate(44.689106 132.587566) scale(0.18 -0.18)">
       <use xlink:href="#CMR17-31" transform="scale(0.996264)"/>
       <use xlink:href="#CMR17-30" transform="translate(45.690477 0) scale(0.996264)"/>
      </g>
     </g>
    </g>
    <g id="ytick_6">
     <g id="line2d_13">
      <g>
       <use xlink:href="#m1909a9e0ce" x="68.137678" y="63.371827" style="stroke: #000000; stroke-width: 0.8"/>
      </g>
     </g>
     <g id="text_14">
      <!-- $\mathdefault{25}$ -->
      <g transform="translate(44.689106 69.598477) scale(0.18 -0.18)">
       <use xlink:href="#CMR17-32" transform="scale(0.996264)"/>
       <use xlink:href="#CMR17-35" transform="translate(45.690477 0) scale(0.996264)"/>
      </g>
     </g>
    </g>
    <g id="text_15">
     <!-- Component 2 -->
     <g transform="translate(23.2533 243.071248) rotate(-90) scale(0.18 -0.18)">
      <use xlink:href="#CMR17-43" transform="scale(0.996264)"/>
      <use xlink:href="#CMR17-6f" transform="translate(66.509881 0) scale(0.996264)"/>
      <use xlink:href="#CMR17-6d" transform="translate(112.200358 0) scale(0.996264)"/>
      <use xlink:href="#CMR17-70" transform="translate(189.119948 0) scale(0.996264)"/>
      <use xlink:href="#CMR17-6f" transform="translate(242.617756 0) scale(0.996264)"/>
      <use xlink:href="#CMR17-6e" transform="translate(288.308233 0) scale(0.996264)"/>
      <use xlink:href="#CMR17-65" transform="translate(339.203603 0) scale(0.996264)"/>
      <use xlink:href="#CMR17-6e" transform="translate(379.689263 0) scale(0.996264)"/>
      <use xlink:href="#CMR17-74" transform="translate(427.982179 0) scale(0.996264)"/>
      <use xlink:href="#CMR17-32" transform="translate(493.338913 0) scale(0.996264)"/>
     </g>
    </g>
   </g>
   <g id="patch_3">
    <path d="M 68.137678 378.317271 
L 68.137678 10.8 
" style="fill: none; stroke: #000000; stroke-width: 0.8; stroke-linejoin: miter; stroke-linecap: square"/>
   </g>
   <g id="patch_4">
    <path d="M 68.137678 378.317271 
L 520.745374 378.317271 
" style="fill: none; stroke: #000000; stroke-width: 0.8; stroke-linejoin: miter; stroke-linecap: square"/>
   </g>
   <g id="text_16">
    <!-- $\cos x$ -->
    <g style="fill: #377eb8" transform="translate(500.47924 275.594668) scale(0.18 -0.18)">
     <defs>
      <path id="CMR17-63" d="M 2234 2240 
C 2112 2240 1933 2240 1933 2017 
C 1933 1838 2080 1787 2163 1787 
C 2208 1787 2394 1807 2394 2024 
C 2394 2467 1958 2803 1466 2803 
C 787 2803 211 2178 211 1363 
C 211 516 813 -64 1466 -64 
C 2259 -64 2458 677 2458 748 
C 2458 774 2451 793 2406 793 
C 2362 793 2355 787 2330 703 
C 2163 180 1798 51 1523 51 
C 1114 51 621 427 621 1369 
C 621 2338 1094 2688 1472 2688 
C 1722 2688 2093 2573 2234 2240 
z
" transform="scale(0.015625)"/>
      <path id="CMR17-73" d="M 1978 2697 
C 1978 2813 1971 2819 1933 2819 
C 1907 2819 1901 2813 1824 2717 
C 1805 2691 1747 2626 1728 2601 
C 1523 2819 1235 2819 1126 2819 
C 416 2819 160 2447 160 2076 
C 160 1498 813 1365 998 1325 
C 1402 1243 1542 1217 1677 1101 
C 1760 1025 1901 884 1901 654 
C 1901 384 1747 38 1158 38 
C 602 38 403 460 288 1021 
C 269 1110 269 1117 218 1117 
C 166 1117 160 1110 160 983 
L 160 63 
C 160 -51 166 -58 205 -58 
C 237 -58 243 -51 275 0 
C 314 57 410 211 448 276 
C 576 103 800 -64 1158 -64 
C 1792 -64 2131 283 2131 784 
C 2131 1112 1958 1285 1875 1362 
C 1683 1561 1459 1606 1190 1657 
C 838 1735 390 1825 390 2217 
C 390 2383 480 2737 1126 2737 
C 1811 2737 1850 2094 1862 1888 
C 1869 1856 1901 1849 1920 1849 
C 1978 1849 1978 1869 1978 1978 
L 1978 2697 
z
" transform="scale(0.015625)"/>
      <path id="CMMI12-78" d="M 3034 2606 
C 2829 2567 2752 2414 2752 2293 
C 2752 2139 2874 2088 2963 2088 
C 3155 2088 3290 2254 3290 2427 
C 3290 2695 2982 2816 2714 2816 
C 2323 2816 2106 2433 2048 2312 
C 1901 2816 1504 2816 1389 2816 
C 736 2816 390 1980 390 1839 
C 390 1814 416 1782 461 1782 
C 512 1782 525 1820 538 1846 
C 755 2555 1184 2689 1370 2689 
C 1658 2689 1715 2420 1715 2267 
C 1715 2127 1677 1980 1600 1673 
L 1382 798 
C 1286 415 1101 64 762 64 
C 730 64 570 64 435 147 
C 666 192 717 383 717 460 
C 717 588 621 664 499 664 
C 346 664 179 530 179 326 
C 179 57 480 -64 755 -64 
C 1062 -64 1280 179 1414 441 
C 1517 64 1837 -64 2074 -64 
C 2726 -64 3072 773 3072 913 
C 3072 945 3046 971 3008 971 
C 2950 971 2944 939 2925 888 
C 2752 326 2381 64 2093 64 
C 1869 64 1747 230 1747 492 
C 1747 632 1773 734 1875 1156 
L 2099 2024 
C 2195 2408 2413 2689 2707 2689 
C 2720 2689 2899 2689 3034 2606 
z
" transform="scale(0.015625)"/>
     </defs>
     <use xlink:href="#CMR17-63" transform="scale(0.996264)"/>
     <use xlink:href="#CMR17-6f" transform="translate(40.48566 0) scale(0.996264)"/>
     <use xlink:href="#CMR17-73" transform="translate(86.176138 0) scale(0.996264)"/>
     <use xlink:href="#CMMI12-78" transform="translate(138.58188 0) scale(0.996264)"/>
    </g>
   </g>
   <g id="text_17">
    <!-- $\cos(-x)$ -->
    <g style="fill: #377eb8" transform="translate(505.079743 255.80619) scale(0.18 -0.18)">
     <defs>
      <path id="CMR17-28" d="M 1958 -1561 
C 1958 -1555 1958 -1542 1939 -1523 
C 1645 -1224 858 -407 858 1581 
C 858 3569 1632 4379 1946 4697 
C 1946 4704 1958 4717 1958 4736 
C 1958 4755 1939 4768 1914 4768 
C 1843 4768 1299 4296 986 3594 
C 666 2887 576 2199 576 1588 
C 576 1128 621 351 1005 -471 
C 1312 -1135 1837 -1600 1914 -1600 
C 1946 -1600 1958 -1587 1958 -1561 
z
" transform="scale(0.015625)"/>
      <path id="CMR17-29" d="M 1683 1581 
C 1683 2040 1638 2817 1254 3639 
C 947 4303 422 4768 346 4768 
C 326 4768 301 4761 301 4729 
C 301 4717 307 4710 314 4697 
C 621 4378 1402 3568 1402 1584 
C 1402 -407 627 -1217 314 -1537 
C 307 -1549 301 -1556 301 -1568 
C 301 -1600 326 -1600 346 -1600 
C 416 -1600 960 -1128 1274 -426 
C 1594 281 1683 969 1683 1581 
z
" transform="scale(0.015625)"/>
     </defs>
     <use xlink:href="#CMR17-63" transform="scale(0.996264)"/>
     <use xlink:href="#CMR17-6f" transform="translate(40.48566 0) scale(0.996264)"/>
     <use xlink:href="#CMR17-73" transform="translate(86.176138 0) scale(0.996264)"/>
     <use xlink:href="#CMR17-28" transform="translate(121.977475 0) scale(0.996264)"/>
     <use xlink:href="#CMSY10-0" transform="translate(157.258243 0) scale(0.996264)"/>
     <use xlink:href="#CMMI12-78" transform="translate(234.745711 0) scale(0.996264)"/>
     <use xlink:href="#CMR17-29" transform="translate(290.17977 0) scale(0.996264)"/>
    </g>
   </g>
   <g id="text_18">
    <!-- $\sin(x)/\tan(x)$ -->
    <g style="fill: #377eb8" transform="translate(388.085234 275.518787) scale(0.18 -0.18)">
     <defs>
      <path id="CMR17-69" d="M 992 3909 
C 992 4049 877 4170 730 4170 
C 589 4170 467 4056 467 3909 
C 467 3769 582 3648 730 3648 
C 870 3648 992 3763 992 3909 
z
M 243 2706 
L 243 2541 
C 602 2541 653 2502 653 2197 
L 653 427 
C 653 184 627 153 218 153 
L 218 -13 
C 371 0 646 0 806 0 
C 960 0 1222 0 1370 -13 
L 1370 153 
C 992 153 979 191 979 420 
L 979 2776 
L 243 2706 
z
" transform="scale(0.015625)"/>
      <path id="CMMI12-3d" d="M 2746 4562 
C 2746 4569 2784 4666 2784 4678 
C 2784 4755 2720 4800 2669 4800 
C 2637 4800 2579 4800 2528 4659 
L 384 -1363 
C 384 -1370 346 -1465 346 -1478 
C 346 -1555 410 -1600 461 -1600 
C 499 -1600 557 -1593 602 -1459 
L 2746 4562 
z
" transform="scale(0.015625)"/>
      <path id="CMR17-61" d="M 2304 1653 
C 2304 2072 2304 2294 2035 2543 
C 1798 2752 1523 2816 1306 2816 
C 800 2816 435 2407 435 1971 
C 435 1728 627 1728 666 1728 
C 749 1728 896 1778 896 1954 
C 896 2112 774 2181 666 2181 
C 640 2181 608 2174 589 2168 
C 723 2592 1069 2714 1293 2714 
C 1613 2714 1965 2429 1965 1885 
L 1965 1600 
C 1587 1600 1133 1549 774 1357 
C 371 1133 256 813 256 570 
C 256 77 832 -64 1171 -64 
C 1523 -64 1850 139 1990 511 
C 2003 233 2182 -18 2464 -18 
C 2598 -18 2938 70 2938 567 
L 2938 920 
L 2822 920 
L 2822 562 
C 2822 178 2650 128 2566 128 
C 2304 128 2304 458 2304 738 
L 2304 1653 
z
M 1965 870 
C 1965 317 1568 38 1216 38 
C 896 38 646 275 646 570 
C 646 761 730 1100 1101 1305 
C 1408 1478 1760 1504 1965 1504 
L 1965 870 
z
" transform="scale(0.015625)"/>
     </defs>
     <use xlink:href="#CMR17-73" transform="scale(0.996264)"/>
     <use xlink:href="#CMR17-69" transform="translate(35.801338 0) scale(0.996264)"/>
     <use xlink:href="#CMR17-6e" transform="translate(60.672396 0) scale(0.996264)"/>
     <use xlink:href="#CMR17-28" transform="translate(111.567766 0) scale(0.996264)"/>
     <use xlink:href="#CMMI12-78" transform="translate(146.848534 0) scale(0.996264)"/>
     <use xlink:href="#CMR17-29" transform="translate(202.282593 0) scale(0.996264)"/>
     <use xlink:href="#CMMI12-3d" transform="translate(237.563361 0) scale(0.996264)"/>
     <use xlink:href="#CMR17-74" transform="translate(302.942685 0) scale(0.996264)"/>
     <use xlink:href="#CMR17-61" transform="translate(338.223453 0) scale(0.996264)"/>
     <use xlink:href="#CMR17-6e" transform="translate(383.91393 0) scale(0.996264)"/>
     <use xlink:href="#CMR17-28" transform="translate(434.8093 0) scale(0.996264)"/>
     <use xlink:href="#CMMI12-78" transform="translate(470.090068 0) scale(0.996264)"/>
     <use xlink:href="#CMR17-29" transform="translate(525.524127 0) scale(0.996264)"/>
    </g>
   </g>
   <g id="text_19">
    <!-- $1/\sec(x)$ -->
    <g style="fill: #377eb8" transform="translate(425.260441 256.350628) scale(0.18 -0.18)">
     <use xlink:href="#CMR17-31" transform="scale(0.996264)"/>
     <use xlink:href="#CMMI12-3d" transform="translate(45.690477 0) scale(0.996264)"/>
     <use xlink:href="#CMR17-73" transform="translate(111.069801 0) scale(0.996264)"/>
     <use xlink:href="#CMR17-65" transform="translate(146.871139 0) scale(0.996264)"/>
     <use xlink:href="#CMR17-63" transform="translate(187.356799 0) scale(0.996264)"/>
     <use xlink:href="#CMR17-28" transform="translate(227.84246 0) scale(0.996264)"/>
     <use xlink:href="#CMMI12-78" transform="translate(263.123227 0) scale(0.996264)"/>
     <use xlink:href="#CMR17-29" transform="translate(318.557287 0) scale(0.996264)"/>
    </g>
   </g>
   <g id="text_20">
    <!-- $\sin(\sin^{-1}(\cos(x)))$ -->
    <g style="fill: #377eb8" transform="translate(438.32916 236.886922) scale(0.18 -0.18)">
     <use xlink:href="#CMR17-73" transform="scale(0.996264)"/>
     <use xlink:href="#CMR17-69" transform="translate(35.801338 0) scale(0.996264)"/>
     <use xlink:href="#CMR17-6e" transform="translate(60.672396 0) scale(0.996264)"/>
     <use xlink:href="#CMR17-28" transform="translate(111.567766 0) scale(0.996264)"/>
     <use xlink:href="#CMR17-73" transform="translate(146.848534 0) scale(0.996264)"/>
     <use xlink:href="#CMR17-69" transform="translate(182.649871 0) scale(0.996264)"/>
     <use xlink:href="#CMR17-6e" transform="translate(207.52093 0) scale(0.996264)"/>
     <use xlink:href="#CMSY10-0" transform="translate(258.4163 38.426442) scale(0.697382)"/>
     <use xlink:href="#CMR17-31" transform="translate(312.657293 38.426442) scale(0.697382)"/>
     <use xlink:href="#CMR17-28" transform="translate(345.138607 0) scale(0.996264)"/>
     <use xlink:href="#CMR17-63" transform="translate(380.419375 0) scale(0.996264)"/>
     <use xlink:href="#CMR17-6f" transform="translate(420.905035 0) scale(0.996264)"/>
     <use xlink:href="#CMR17-73" transform="translate(466.595512 0) scale(0.996264)"/>
     <use xlink:href="#CMR17-28" transform="translate(502.39685 0) scale(0.996264)"/>
     <use xlink:href="#CMMI12-78" transform="translate(537.677618 0) scale(0.996264)"/>
     <use xlink:href="#CMR17-29" transform="translate(593.111677 0) scale(0.996264)"/>
     <use xlink:href="#CMR17-29" transform="translate(628.392445 0) scale(0.996264)"/>
     <use xlink:href="#CMR17-29" transform="translate(663.673213 0) scale(0.996264)"/>
    </g>
   </g>
   <g id="text_21">
    <!-- $\ln(x)$ -->
    <g style="fill: #ff7f00" transform="translate(295.59524 221.584567) scale(0.18 -0.18)">
     <defs>
      <path id="CMR17-6c" d="M 979 4396 
L 218 4326 
L 218 4160 
C 595 4160 653 4122 653 3817 
L 653 426 
C 653 184 627 153 218 153 
L 218 -13 
C 371 0 653 0 813 0 
C 979 0 1261 0 1414 -13 
L 1414 153 
C 1005 153 979 178 979 426 
L 979 4396 
z
" transform="scale(0.015625)"/>
     </defs>
     <use xlink:href="#CMR17-6c" transform="scale(0.996264)"/>
     <use xlink:href="#CMR17-6e" transform="translate(24.871058 0) scale(0.996264)"/>
     <use xlink:href="#CMR17-28" transform="translate(75.766428 0) scale(0.996264)"/>
     <use xlink:href="#CMMI12-78" transform="translate(111.047196 0) scale(0.996264)"/>
     <use xlink:href="#CMR17-29" transform="translate(166.481256 0) scale(0.996264)"/>
    </g>
   </g>
   <g id="text_22">
    <!-- $\sin(x)$ -->
    <g style="fill: #4daf4a" transform="translate(439.911191 192.235003) scale(0.18 -0.18)">
     <use xlink:href="#CMR17-73" transform="scale(0.996264)"/>
     <use xlink:href="#CMR17-69" transform="translate(35.801338 0) scale(0.996264)"/>
     <use xlink:href="#CMR17-6e" transform="translate(60.672396 0) scale(0.996264)"/>
     <use xlink:href="#CMR17-28" transform="translate(111.567766 0) scale(0.996264)"/>
     <use xlink:href="#CMMI12-78" transform="translate(146.848534 0) scale(0.996264)"/>
     <use xlink:href="#CMR17-29" transform="translate(202.282593 0) scale(0.996264)"/>
    </g>
   </g>
   <g id="text_23">
    <!-- $\cot(x)$ -->
    <g style="fill: #f781bf" transform="translate(441.029966 92.802726) scale(0.2 -0.2)">
     <use xlink:href="#CMR17-63" transform="scale(0.996264)"/>
     <use xlink:href="#CMR17-6f" transform="translate(40.48566 0) scale(0.996264)"/>
     <use xlink:href="#CMR17-74" transform="translate(86.176138 0) scale(0.996264)"/>
     <use xlink:href="#CMR17-28" transform="translate(121.456905 0) scale(0.996264)"/>
     <use xlink:href="#CMMI12-78" transform="translate(156.737673 0) scale(0.996264)"/>
     <use xlink:href="#CMR17-29" transform="translate(212.171733 0) scale(0.996264)"/>
    </g>
   </g>
   <g id="text_24">
    <!-- $\sin^{-1}(x)$ -->
    <g style="fill: #a65628" transform="translate(97.478071 168.920159) scale(0.18 -0.18)">
     <use xlink:href="#CMR17-73" transform="scale(0.996264)"/>
     <use xlink:href="#CMR17-69" transform="translate(35.801338 0) scale(0.996264)"/>
     <use xlink:href="#CMR17-6e" transform="translate(60.672396 0) scale(0.996264)"/>
     <use xlink:href="#CMSY10-0" transform="translate(111.567766 38.426442) scale(0.697382)"/>
     <use xlink:href="#CMR17-31" transform="translate(165.808759 38.426442) scale(0.697382)"/>
     <use xlink:href="#CMR17-28" transform="translate(198.290073 0) scale(0.996264)"/>
     <use xlink:href="#CMMI12-78" transform="translate(233.570841 0) scale(0.996264)"/>
     <use xlink:href="#CMR17-29" transform="translate(289.0049 0) scale(0.996264)"/>
    </g>
   </g>
   <g id="text_25">
    <!-- $\cos^{-1}(x)$ -->
    <g style="fill: #984ea3" transform="translate(180.573889 70.684877) scale(0.18 -0.18)">
     <use xlink:href="#CMR17-63" transform="scale(0.996264)"/>
     <use xlink:href="#CMR17-6f" transform="translate(40.48566 0) scale(0.996264)"/>
     <use xlink:href="#CMR17-73" transform="translate(86.176138 0) scale(0.996264)"/>
     <use xlink:href="#CMSY10-0" transform="translate(121.977475 36.153639) scale(0.697382)"/>
     <use xlink:href="#CMR17-31" transform="translate(176.218468 36.153639) scale(0.697382)"/>
     <use xlink:href="#CMR17-28" transform="translate(208.699782 0) scale(0.996264)"/>
     <use xlink:href="#CMMI12-78" transform="translate(243.98055 0) scale(0.996264)"/>
     <use xlink:href="#CMR17-29" transform="translate(299.41461 0) scale(0.996264)"/>
    </g>
   </g>
   <g id="text_26">
    <!-- $\cosh(x)$ -->
    <g style="fill: #7f7f7f" transform="translate(317.931892 30.895243) scale(0.18 -0.18)">
     <defs>
      <path id="CMR17-68" d="M 2656 1933 
C 2656 2259 2592 2790 1837 2790 
C 1312 2790 1056 2368 979 2157 
L 973 2157 
L 973 4396 
L 211 4326 
L 211 4160 
C 589 4160 646 4122 646 3817 
L 646 426 
C 646 184 621 153 211 153 
L 211 -13 
C 365 0 646 0 813 0 
C 979 0 1267 0 1421 -13 
L 1421 153 
C 1011 153 986 178 986 428 
L 986 1658 
C 986 2247 1344 2688 1792 2688 
C 2266 2688 2317 2266 2317 1958 
L 2317 428 
C 2317 184 2291 153 1882 153 
L 1882 -13 
C 2035 0 2317 0 2483 0 
C 2650 0 2938 0 3091 -13 
L 3091 153 
C 2682 153 2656 178 2656 428 
L 2656 1933 
z
" transform="scale(0.015625)"/>
     </defs>
     <use xlink:href="#CMR17-63" transform="scale(0.996264)"/>
     <use xlink:href="#CMR17-6f" transform="translate(40.48566 0) scale(0.996264)"/>
     <use xlink:href="#CMR17-73" transform="translate(86.176138 0) scale(0.996264)"/>
     <use xlink:href="#CMR17-68" transform="translate(121.977475 0) scale(0.996264)"/>
     <use xlink:href="#CMR17-28" transform="translate(172.872845 0) scale(0.996264)"/>
     <use xlink:href="#CMMI12-78" transform="translate(208.153613 0) scale(0.996264)"/>
     <use xlink:href="#CMR17-29" transform="translate(263.587672 0) scale(0.996264)"/>
    </g>
   </g>
   <g id="text_27">
    <!-- $\tanh(x)$ -->
    <g style="fill: #e41a1c" transform="translate(280.425522 121.027464) scale(0.18 -0.18)">
     <use xlink:href="#CMR17-74" transform="scale(0.996264)"/>
     <use xlink:href="#CMR17-61" transform="translate(35.280768 0) scale(0.996264)"/>
     <use xlink:href="#CMR17-6e" transform="translate(80.971245 0) scale(0.996264)"/>
     <use xlink:href="#CMR17-68" transform="translate(131.866615 0) scale(0.996264)"/>
     <use xlink:href="#CMR17-28" transform="translate(182.761984 0) scale(0.996264)"/>
     <use xlink:href="#CMMI12-78" transform="translate(218.042752 0) scale(0.996264)"/>
     <use xlink:href="#CMR17-29" transform="translate(273.476812 0) scale(0.996264)"/>
    </g>
   </g>
   <g id="text_28">
    <!-- $\sinh^{-1}(x)$ -->
    <g style="fill: #bcbd22" transform="translate(260.798746 344.279111) scale(0.18 -0.18)">
     <use xlink:href="#CMR17-73" transform="scale(0.996264)"/>
     <use xlink:href="#CMR17-69" transform="translate(35.801338 0) scale(0.996264)"/>
     <use xlink:href="#CMR17-6e" transform="translate(60.672396 0) scale(0.996264)"/>
     <use xlink:href="#CMR17-68" transform="translate(111.567766 0) scale(0.996264)"/>
     <use xlink:href="#CMSY10-0" transform="translate(162.463136 42.258523) scale(0.697382)"/>
     <use xlink:href="#CMR17-31" transform="translate(216.704129 42.258523) scale(0.697382)"/>
     <use xlink:href="#CMR17-28" transform="translate(249.185443 0) scale(0.996264)"/>
     <use xlink:href="#CMMI12-78" transform="translate(284.466211 0) scale(0.996264)"/>
     <use xlink:href="#CMR17-29" transform="translate(339.90027 0) scale(0.996264)"/>
    </g>
   </g>
   <g id="text_29">
    <!-- $\tanh^{-1}(x)$ -->
    <g style="fill: #17becf" transform="translate(125.557976 270.801668) scale(0.18 -0.18)">
     <use xlink:href="#CMR17-74" transform="scale(0.996264)"/>
     <use xlink:href="#CMR17-61" transform="translate(35.280768 0) scale(0.996264)"/>
     <use xlink:href="#CMR17-6e" transform="translate(80.971245 0) scale(0.996264)"/>
     <use xlink:href="#CMR17-68" transform="translate(131.866615 0) scale(0.996264)"/>
     <use xlink:href="#CMSY10-0" transform="translate(182.761984 42.258523) scale(0.697382)"/>
     <use xlink:href="#CMR17-31" transform="translate(237.002978 42.258523) scale(0.697382)"/>
     <use xlink:href="#CMR17-28" transform="translate(269.484292 0) scale(0.996264)"/>
     <use xlink:href="#CMMI12-78" transform="translate(304.765059 0) scale(0.996264)"/>
     <use xlink:href="#CMR17-29" transform="translate(360.199119 0) scale(0.996264)"/>
    </g>
   </g>
  </g>
 </g>
 <defs>
  <clipPath id="p7ea8a306ed">
   <rect x="68.137678" y="10.8" width="452.607696" height="367.517271"/>
  </clipPath>
 </defs>
</svg>
